<svg id="visual" viewBox="0 0 1600 900" width="1600" height="900" xmlns="http://www.w3.org/2000/svg" xmlns:xlink="http://www.w3.org/1999/xlink" version="1.1"><path d="M0 127L24.2 161.5C48.3 196 96.7 265 145.2 311.5C193.7 358 242.3 382 290.8 361C339.3 340 387.7 274 436.2 241C484.7 208 533.3 208 581.8 203.5C630.3 199 678.7 190 727.2 218.5C775.7 247 824.3 313 872.8 311.5C921.3 310 969.7 241 1018.2 248.5C1066.7 256 1115.3 340 1163.8 352C1212.3 364 1260.7 304 1309.2 283C1357.7 262 1406.3 280 1454.8 283C1503.3 286 1551.7 274 1575.8 268L1600 262L1600 0L1575.8 0C1551.7 0 1503.3 0 1454.8 0C1406.3 0 1357.7 0 1309.2 0C1260.7 0 1212.3 0 1163.8 0C1115.3 0 1066.7 0 1018.2 0C969.7 0 921.3 0 872.8 0C824.3 0 775.7 0 727.2 0C678.7 0 630.3 0 581.8 0C533.3 0 484.7 0 436.2 0C387.7 0 339.3 0 290.8 0C242.3 0 193.7 0 145.2 0C96.7 0 48.3 0 24.2 0L0 0Z" fill="#1a1926"></path><path d="M0 469L24.2 475C48.3 481 96.7 493 145.2 518.5C193.7 544 242.3 583 290.8 584.5C339.3 586 387.7 550 436.2 548.5C484.7 547 533.3 580 581.8 562C630.3 544 678.7 475 727.2 460C775.7 445 824.3 484 872.8 517C921.3 550 969.7 577 1018.2 587.5C1066.7 598 1115.3 592 1163.8 568C1212.3 544 1260.7 502 1309.2 496C1357.7 490 1406.3 520 1454.8 544C1503.3 568 1551.7 586 1575.8 595L1600 604L1600 260L1575.8 266C1551.7 272 1503.3 284 1454.8 281C1406.3 278 1357.7 260 1309.2 281C1260.7 302 1212.3 362 1163.8 350C1115.3 338 1066.7 254 1018.2 246.5C969.7 239 921.3 308 872.8 309.5C824.3 311 775.7 245 727.2 216.5C678.7 188 630.3 197 581.8 201.5C533.3 206 484.7 206 436.2 239C387.7 272 339.3 338 290.8 359C242.3 380 193.7 356 145.2 309.5C96.7 263 48.3 194 24.2 159.5L0 125Z" fill="#1d1c2c"></path><path d="M0 622L24.2 635.5C48.3 649 96.7 676 145.2 689.5C193.7 703 242.3 703 290.8 712C339.3 721 387.7 739 436.2 737.5C484.7 736 533.3 715 581.8 691C630.3 667 678.7 640 727.2 629.5C775.7 619 824.3 625 872.8 640C921.3 655 969.7 679 1018.2 688C1066.7 697 1115.3 691 1163.8 680.5C1212.3 670 1260.7 655 1309.2 647.5C1357.7 640 1406.3 640 1454.8 649C1503.3 658 1551.7 676 1575.8 685L1600 694L1600 602L1575.8 593C1551.7 584 1503.3 566 1454.8 542C1406.3 518 1357.7 488 1309.2 494C1260.7 500 1212.3 542 1163.8 566C1115.3 590 1066.7 596 1018.2 585.5C969.7 575 921.3 548 872.8 515C824.3 482 775.7 443 727.2 458C678.7 473 630.3 542 581.8 560C533.3 578 484.7 545 436.2 546.5C387.7 548 339.3 584 290.8 582.5C242.3 581 193.7 542 145.2 516.5C96.7 491 48.3 479 24.2 473L0 467Z" fill="#212032"></path><path d="M0 739L24.2 742C48.3 745 96.7 751 145.2 767.5C193.7 784 242.3 811 290.8 823C339.3 835 387.7 832 436.2 833.5C484.7 835 533.3 841 581.8 830.5C630.3 820 678.7 793 727.2 769C775.7 745 824.3 724 872.8 730C921.3 736 969.7 769 1018.2 776.5C1066.7 784 1115.3 766 1163.8 754C1212.3 742 1260.7 736 1309.2 743.5C1357.7 751 1406.3 772 1454.8 788.5C1503.3 805 1551.7 817 1575.8 823L1600 829L1600 692L1575.8 683C1551.7 674 1503.3 656 1454.8 647C1406.3 638 1357.7 638 1309.2 645.5C1260.7 653 1212.3 668 1163.8 678.5C1115.3 689 1066.7 695 1018.2 686C969.7 677 921.3 653 872.8 638C824.3 623 775.7 617 727.2 627.5C678.7 638 630.3 665 581.8 689C533.3 713 484.7 734 436.2 735.5C387.7 737 339.3 719 290.8 710C242.3 701 193.7 701 145.2 687.5C96.7 674 48.3 647 24.2 633.5L0 620Z" fill="#312f46"></path><path d="M0 901L24.2 901C48.3 901 96.7 901 145.2 901C193.7 901 242.3 901 290.8 901C339.3 901 387.7 901 436.2 901C484.7 901 533.3 901 581.8 901C630.3 901 678.7 901 727.2 901C775.7 901 824.3 901 872.8 901C921.3 901 969.7 901 1018.2 901C1066.7 901 1115.3 901 1163.8 901C1212.3 901 1260.7 901 1309.2 901C1357.7 901 1406.3 901 1454.8 901C1503.3 901 1551.7 901 1575.8 901L1600 901L1600 827L1575.8 821C1551.7 815 1503.3 803 1454.8 786.5C1406.3 770 1357.7 749 1309.2 741.5C1260.7 734 1212.3 740 1163.8 752C1115.3 764 1066.7 782 1018.2 774.5C969.7 767 921.3 734 872.8 728C824.3 722 775.7 743 727.2 767C678.7 791 630.3 818 581.8 828.5C533.3 839 484.7 833 436.2 831.5C387.7 830 339.3 833 290.8 821C242.3 809 193.7 782 145.2 765.5C96.7 749 48.3 743 24.2 740L0 737Z" fill="#413f5a"></path></svg>